<svg xmlns="http://www.w3.org/2000/svg" viewBox="0 0 599.99 93.09"><defs><style>.cls-1,.cls-3{fill:none;stroke-width:2px;}.cls-1{stroke:#999;}.cls-1,.cls-2,.cls-3,.cls-7{stroke-miterlimit:10;}.cls-2{font-size:39.94px;font-family:Arial-BoldMT, Arial;font-weight:700;}.cls-2,.cls-5{fill:#de2627;}.cls-2,.cls-3{stroke:#000;}.cls-4{fill:#231f20;}.cls-6,.cls-7{fill:#fff;}.cls-7{stroke:#fff;}</style></defs><g id="Layer_2" data-name="Layer 2"><g id="stacked_logo" data-name="stacked logo"><text/><path class="cls-1" d="M424.54,31.78s1.07-8-8.56-8c-4.81,0-7.56,2-9.11,4.37a20.5,20.5,0,0,0-2.4,11.54c.66,9,9.66,14.82,17.66,11.91,3-1.94,6-4.85,3-9.7-7-6.79-19-3.88-26,1.94-10,10.67-8,27.16,3,35.89,14,10.67,35,8.73,46-5.82,5-6.79,5-17.46-3-22.31-9-4.85-23,2.91-21,12.61,1,8.73,11,18.43,20.95,17"/><text class="cls-2" transform="translate(60.53 58.58) scale(1.19 1)">Boston Boxing</text><text class="cls-2" transform="translate(432.53 58.58) scale(1.19 1)">Fitness</text><path class="cls-3" d="M22,49.15s5.11-40.33,7-41.67L24.19,48.76"/><path class="cls-3" d="M31.79,6.75s2,32.52.55,34.91"/><path class="cls-3" d="M31.76,7.8s2.47,11.5,3.55,31"/><path class="cls-4" d="M26.93,38a26.4,26.4,0,0,1-14.3-.2s-.21,1.66-1.29,1.84a57.9,57.9,0,0,0-.71,13.07s.56.46.9.45c0,0-12.38,12.77-11.48,14.8A29.78,29.78,0,0,1,.47,79.74,13.12,13.12,0,0,0,9.9,91.39s9.13-.5,14.57,1.7c0,0,10.56-.28,9.23-8.26,0,0,12.74,5.27,23.17-1.79,0,0,4.24-2.43.16-9.83,0,0,5.88-5.58-.75-14.11,0,0-4.88-8.6-9.35-10.35a7.2,7.2,0,0,0-.41-3.62s-2.67-5.94-3.38-6.74c0,0-1.36-1.87-.12-3.08,0,0,.49-4.9-1.3-5.58a91.55,91.55,0,0,0-14.43,7.15s.72.93-.37.91"/><path class="cls-5" d="M10.22,55.51s9.13-2.28,13.6-1.08c0,0,5-.1,3.84,2.23,0,0-2.5,4.22-.69,11.38,0,0,1.56,7.45-3.19,3.79,0,0-2.57-.91,0,1.65l1.86,1.39L25,76.27l1.58,1-3.31.86s-.05,1.1,3.65.87c0,0,1.67,1.22-.25,2.94,0,0-1.43.42.31.9,0,0,5.63.79-2.06,5.21,0,0,1.46.4,3.48-1.14,0,0,1.14,1.42-3.91,4,0,0,2.17-1.54,0-1.55s-2.06.44-5.28-1.08c0,0-.18.19,3-.67a44.61,44.61,0,0,1-8.23-.41s-1,.21,1.37,1.63l.23.14c2.68,1.54-8.41-.22-9.48-4.48,0,0,.24,3.83-2.37-.64,0,0-3.44-2.34-1.92-5.15,0,0,.84-4.06,2.14-.81,0,0,.23-1.11,1.42-.52,0,0-.11-7.5-1.13-8.28,0,0-3.35-1.21-1.55-4.2.09-.14.18-.28.28-.42,2.4-3.3,6.79-6.68,7.15-9"/><path class="cls-6" d="M12.15,40.06s.76,5.55-.72,7.07l.16,4.12s-.78.85,4,.3c0,0,12.2.07,12.68.88l1.07-9.75s2.68-3.12-2.28-1.74c0,0-10.24.58-14.9-.88"/><path class="cls-5" d="M38.21,48s-6.06-.13-3.71,9.3c0,0-3.17,6.72-2.29,10.8a13.69,13.69,0,0,1,1.39,10S40.69,93.32,53,80.3c0,0,.17,1.83,1.24,1.51s0-.27,0-.27.58-3.5,1.49-3.45,0-.55,0-.55-2,.91-2.37,1.83c0,0-.7-2-1-.05a6.51,6.51,0,0,0-1.72,2,1,1,0,0,0-.08.33c-.08,1-.42-1.45.71-2.68,0,0-1.73-.3-1-.69,0,0-1.08,2.6-2.78,2.94l1.37-2s.48-1.67-1.44.23c0,0-1.47,1.53-2.42.47,0,0,4.45-1.73-.23-1.28,0,0,2.42-.64,3.17-2.23,0,0,1.16-.22-2.64-.35,0,0,.71-.3-.22-1.09l3.51-.23s1.79-7.39-4.07-5c0,0,1.79-2.63-3,.12,0,0,.73-2.23-2.44.09,0,0,.94-1.67-2.15.45,0,0,.68-1.44-1.26.05,0,0,1.23-3.29,6.36-3.79,0,0-.72-2.1-2.61-1.94,0,0-3.81-2.78-.89-2.07l1.75.85L39.61,61s1.74.57,2.06,1.75c0,0-1.43-4.25.46-4.5a7.41,7.41,0,0,0,1.41,5.62c.08.09.15.18.23.26,2.3,2.48.29-2.66.29-2.66s1.74,3,1.7,2c0,0-.36-2.46.72-2.5,0,0-.06,3.11.05,3.56s1-3.24,2.57-3.67c0,0-1,2-.68,2.67a.38.38,0,0,0,.25.19c.91.24,1.34-.33,2.16,0,0,0-4.17,1.86-2.24,2.76l2.59-.86s-4.45,1.83,1.38,3c0,0-.36.89-2.67.93,0,0,1.62-.15,2.62,2.55l.91.15A8.26,8.26,0,0,0,57,67.79s1.88-5.29-2.5-8.6c0,0-.83-2.9-3.62-2.51,0,0-2.75-8-7.75-8.86,0,0-3-2.44-4.87.19"/><path class="cls-6" d="M28,37.88s.4-1.29,3.79-2.25,0-.37,0-.37,5.29-.93,7.39-2.85a14.06,14.06,0,0,1,.72,2.49s.9-4.75,1,0c0,0,1.76,3.64.72,4.69,0,0-.43.57-.65-.61l.46,4.92a10.31,10.31,0,0,1-5.71,1.78s-3.09,1.86-3.19-3c0,0,.33-2.94-1.27-2.51s1.87-3-1.63-2.32c0,0-2,.63-1.62.06"/><ellipse class="cls-3" cx="42.37" cy="5.38" rx="9.8" ry="4.38"/><ellipse class="cls-3" cx="19.18" cy="5.38" rx="9.8" ry="4.38"/><path d="M35.58,5.25c0,2-1.95,3.55-4.34,3.55S26.9,7.21,26.9,5.25,28.84,1.7,31.24,1.7s4.34,1.59,4.34,3.55"/><path class="cls-7" d="M31,1.57a4.85,4.85,0,0,0-2.14,5.85S26.51,3.56,31,1.57Z"/><path class="cls-7" d="M29.13,2.73S33.72,4.15,33,8.07A8.14,8.14,0,0,0,29.13,2.73Z"/></g></g></svg>