<?xml version="1.0" encoding="utf-8"?>
<!-- Generator: Adobe Illustrator 24.1.3, SVG Export Plug-In . SVG Version: 6.00 Build 0)  -->
<svg version="1.1" id="Layer_1" xmlns="https://www.w3.org/2000/svg" xmlns:xlink="https://www.w3.org/1999/xlink" x="0px" y="0px"
	 viewBox="0 0 206.8 293.2" style="enable-background:new 0 0 206.8 293.2;" xml:space="preserve">
<style type="text/css">
	.st0{fill:none;stroke:#000000;stroke-width:2;stroke-miterlimit:10;}
	.st1{fill:#DE2627;}
	.st2{fill:#FFFFFF;}
	.st3{fill:#FFFFFF;stroke:#FFFFFF;stroke-miterlimit:10;}
	.st4{fill:none;stroke:#000000;stroke-width:2;stroke-linecap:round;stroke-miterlimit:10;}
	.st5{fill:#DE2627;stroke:#000000;stroke-miterlimit:10;}
</style>
<g>
	<path class="st0" d="M87.4,121.7c0,0,8.5-67.2,11.7-69.4L91,121"/>
	<path class="st0" d="M103.7,51c0,0,3.3,54.2,0.9,58.2"/>
	<path class="st0" d="M103.6,52.8c0,0,4.1,19.1,5.9,51.7"/>
	<path d="M95.6,103.1c0,0-10.9,3.5-23.8-0.3c0,0-0.3,2.8-2.1,3.1c0,0-1.9,9.6-1.2,21.8c0,0,0.9,0.8,1.5,0.7c0,0-20.6,21.3-19.1,24.6
		c0,0,2.6,9.8,0.7,19.6c0,0,0.3,14.4,15.7,19.4c0,0,15.2-0.8,24.3,2.8c0,0,17.6-0.5,15.4-13.8c0,0,21.2,8.8,38.6-3
		c0,0,7.1-4,0.3-16.4c0,0,9.8-9.3-1.3-23.5c0,0-8.1-14.3-15.6-17.2c0,0,0.6-3.1-0.7-6c0,0-4.4-9.9-5.6-11.2c0,0-2.3-3.1-0.2-5.1
		c0,0,0.8-8.2-2.2-9.3c0,0-12,4.5-24,11.9c0,0,1.2,1.6-0.6,1.5"/>
	<path class="st1" d="M67.7,132.3c0,0,15.2-3.8,22.7-1.8c0,0,8.3-0.2,6.4,3.7c0,0-4.2,7-1.1,19c0,0,2.6,12.4-5.3,6.3
		c0,0-4.3-1.5,0,2.7l3.1,2.3l-1,2.3l2.6,1.7l-5.5,1.4c0,0-0.1,1.8,6.1,1.4c0,0,2.8,2-0.4,4.9c0,0-2.4,0.7,0.5,1.5
		c0,0,9.4,1.3-3.4,8.7c0,0,2.4,0.7,5.8-1.9c0,0,1.9,2.4-6.5,6.7c0,0,3.6-2.6,0-2.6c-3.5,0-3.4,0.7-8.8-1.8c0,0-0.3,0.3,5.1-1.1
		c0,0-8.7,0.3-13.7-0.7c0,0-1.7,0.4,2.3,2.7c0.1,0.1,0.3,0.1,0.4,0.2c4.5,2.6-14-0.4-15.8-7.5c0,0,0.4,6.4-4-1.1
		c0,0-5.7-3.9-3.2-8.6c0,0,1.4-6.8,3.6-1.4c0,0,0.4-1.8,2.4-0.9c0,0-0.2-12.5-1.9-13.8c0,0-5.6-2-2.6-7c0.1-0.2,0.3-0.5,0.5-0.7
		C59.8,141.7,67.1,136.1,67.7,132.3"/>
	<path class="st2" d="M71,106.5c0,0,1.3,9.3-1.2,11.8l0.3,6.9c0,0-1.3,1.4,6.6,0.5c0,0,20.3,0.1,21.1,1.5l1.8-16.2
		c0,0,4.5-5.2-3.8-2.9C95.8,108,78.7,109,71,106.5"/>
	<path class="st1" d="M114.4,119.8c0,0-10.1-0.2-6.2,15.5c0,0-5.3,11.2-3.8,18c0,0,4.8,7.7,2.3,16.7c0,0,11.8,25.3,32.3,3.6
		c0,0,0.3,3,2.1,2.5s0-0.5,0-0.5s1-5.8,2.5-5.7c1.5,0.1,0-0.9,0-0.9s-3.4,1.5-3.9,3.1c0,0-1.2-3.3-1.7-0.1c0,0-2.3,1.8-2.9,3.4
		c-0.1,0.2-0.1,0.4-0.1,0.6c-0.1,1.6-0.7-2.4,1.2-4.5c0,0-2.9-0.5-1.7-1.2c0,0-1.8,4.3-4.6,4.9l2.3-3.3c0,0,0.8-2.8-2.4,0.4
		c0,0-2.5,2.5-4,0.8c0,0,7.4-2.9-0.4-2.1c0,0,4-1.1,5.3-3.7c0,0,1.9-0.4-4.4-0.6c0,0,1.2-0.5-0.4-1.8l5.9-0.4c0,0,3-12.3-6.8-8.3
		c0,0,3-4.4-5,0.2c0,0,1.2-3.7-4.1,0.2c0,0,1.6-2.8-3.6,0.7c0,0,1.1-2.4-2.1,0.1c0,0,2-5.5,10.6-6.3c0,0-1.2-3.5-4.3-3.2
		c0,0-6.4-4.6-1.5-3.4l2.9,1.4l-1.1-4.4c0,0,2.9,1,3.4,2.9c0,0-2.4-7.1,0.8-7.5c0,0-1,5.3,2.4,9.4c0.1,0.1,0.2,0.3,0.4,0.4
		c3.8,4.1,0.5-4.4,0.5-4.4s2.9,5.1,2.8,3.4c0,0-0.6-4.1,1.2-4.2c0,0-0.1,5.2,0.1,5.9c0.2,0.8,1.6-5.4,4.3-6.1c0,0-1.7,3.3-1.1,4.4
		c0.1,0.2,0.2,0.3,0.4,0.3c1.5,0.4,2.2-0.5,3.6,0c0,0-7,3.1-3.7,4.6l4.3-1.4c0,0-7.4,3,2.3,4.9c0,0-0.6,1.5-4.5,1.5
		c0,0,2.7-0.3,4.4,4.3l1.5,0.2c0,0,4.6-2.6,5.9-7.4c0,0,3.1-8.8-4.2-14.3c0,0-1.4-4.8-6-4.2c0,0-4.6-13.4-12.9-14.8
		C122.5,119.5,117.5,115.4,114.4,119.8"/>
	<path class="st2" d="M97.3,102.9c0,0,0.7-2.2,6.3-3.8c5.7-1.6,0-0.6,0-0.6s8.8-1.6,12.3-4.7c0,0,0.7,1.5,1.2,4.1
		c0,0,1.5-7.9,1.7-0.1c0,0,2.9,6.1,1.2,7.8c0,0-0.7,0.9-1.1-1l0.8,8.2c0,0-4.5,3.2-9.5,3c0,0-5.1,3.1-5.3-5c0,0,0.6-4.9-2.1-4.2
		c-2.7,0.7,3.1-5-2.7-3.9C100,102.8,96.6,103.9,97.3,102.9"/>
	<ellipse class="st0" cx="121.3" cy="48.8" rx="16.3" ry="7.3"/>
	<ellipse class="st0" cx="82.7" cy="48.8" rx="16.3" ry="7.3"/>
	<path d="M110,48.6c0,3.3-3.2,5.9-7.2,5.9c-4,0-7.2-2.6-7.2-5.9c0-3.3,3.2-5.9,7.2-5.9C106.7,42.6,110,45.3,110,48.6"/>
	<path class="st3" d="M102.4,42.4c0,0-5.8,3.1-3.6,9.7C98.8,52.2,94.9,45.7,102.4,42.4z"/>
	<path class="st3" d="M99.2,44.4c0,0,7.7,2.4,6.4,8.9C105.6,53.2,104.5,47.1,99.2,44.4z"/>
	<path class="st0" d="M134.1,58.3c23.4,16.5,39.5,50.5,39.5,89.7c0,55.4-31.9,100.3-71.4,100.3S30.9,203.4,30.9,148
		c0-39.7,16.4-74,40.2-90.2"/>
	<path class="st4" d="M107.9,210c0,0,0.7-5.6-5.8-5.6c-3.3,0-5.1,1.4-6.2,3.1c-1.3,2.4-1.9,5.3-1.6,8.1c0.4,6.3,6.6,10.4,12,8.3
		c2-1.4,4.1-3.4,2-6.8c-4.7-4.7-12.9-2.7-17.6,1.4c-6.8,7.5-5.4,19,2,25.1c9.5,7.5,23.7,6.1,31.2-4.1c3.4-4.7,3.4-12.2-2-15.6
		c-6.1-3.4-15.6,2-14.2,8.8c0.7,6.1,7.5,12.9,14.2,11.9"/>
	<g>
		<path class="st5" d="M3.1,91.8c0.2-1.3,0.9-4.1,1.8-6.7c1-2.9,1.7-4.6,2.9-6c1.2-1.4,2.8-2.2,4.5-1.6c1.5,0.5,2.6,1.9,2.5,4.6
			l0.1,0c1.4-2.3,3.5-3.3,5.6-2.7c1.6,0.5,2.6,1.9,3,3.6c0.5,1.9,0.2,4.7-1.3,9.1c-0.8,2.5-1.6,4.3-2.1,5.4L3.1,91.8z M11.3,88.5
			l0.4-1.1c0.8-2.3,0.5-3.7-0.7-4.1c-1-0.3-2,0.4-2.6,2.2C8.2,86.5,8,87,8,87.4L11.3,88.5z M18.7,90.9c0.2-0.4,0.3-0.9,0.6-1.6
			c0.6-1.8,0.5-3.6-1-4.1c-1.5-0.5-2.6,0.9-3.3,3l-0.4,1.3L18.7,90.9z"/>
		<path class="st5" d="M28.5,56.5c5.1,2.9,6.3,8.4,3,14.3c-3.3,5.9-8.9,7-13.3,4.5c-4.6-2.6-6.2-8.3-2.9-14.1
			C18.7,55,24.2,54.1,28.5,56.5z M21.1,69.9c3,1.7,5.7,1.2,7.1-1.3c1.4-2.5,0.2-5-2.6-6.7c-2.7-1.6-5.6-1.3-7,1.2
			C17.2,65.6,18.2,68.2,21.1,69.9z"/>
		<path class="st5" d="M34.8,56c1.3-0.6,3.1-1.9,4.6-3.5c1.3-1.5,1.5-2.6,0.8-3.2c-0.7-0.6-1.7-0.2-3.8,1.2c-3.2,2-6.1,2.8-8.2,1
			c-2.4-2.1-2.2-6.2,1.5-10.4c1.7-2,3.2-3.1,4.6-3.8l2.1,3.5c-0.9,0.5-2.3,1.4-3.8,3c-1.2,1.3-1.4,2.4-0.8,3c0.7,0.6,1.7,0,4.2-1.5
			c3.5-2.2,6-2.3,7.9-0.7c2.4,2.1,2.5,6.1-1.7,10.8c-1.7,2-3.8,3.5-5.1,4.1L34.8,56z"/>
		<path class="st5" d="M44.5,32.8l-4.4,3.4l-2.5-3.3l13.5-10.4l2.5,3.3l-4.5,3.5l8.7,11.2L53.2,44L44.5,32.8z"/>
		<path class="st5" d="M77.7,19.5c2.4,5.4,0.1,10.5-6,13.3c-6.2,2.8-11.3,0.4-13.4-4.2c-2.2-4.9-0.1-10.4,6-13.2
			C70.7,12.5,75.7,15,77.7,19.5z M63.9,25.9c1.4,3.1,3.9,4.3,6.5,3.2c2.6-1.2,3.2-3.9,1.8-6.9c-1.3-2.9-3.8-4.4-6.4-3.2
			C63.2,20.1,62.5,22.8,63.9,25.9z"/>
		<path class="st5" d="M83.5,27.6L81.1,9.5L88,8.6l4.2,5.1c1.4,1.7,3,3.9,4.2,5.9l0.1,0c-0.6-2.3-1.1-4.9-1.4-7.6l-0.6-4.3l5.3-0.7
			l2.3,18.1L96,26l-4.4-5.5c-1.5-1.8-3.2-4-4.5-6.1l-0.1,0c0.5,2.4,0.9,5.1,1.3,8.1l0.6,4.5L83.5,27.6z"/>
		<path class="st5" d="M115.2,8.3c1.3,0.1,4.2,0.6,6.8,1.2c3,0.7,4.8,1.3,6.3,2.4c1.5,1,2.4,2.6,2,4.3c-0.4,1.5-1.7,2.7-4.3,2.9
			l0,0.1c2.5,1.2,3.6,3.2,3.1,5.3c-0.4,1.7-1.7,2.8-3.3,3.3c-1.8,0.6-4.6,0.6-9.2-0.5c-2.6-0.6-4.4-1.2-5.5-1.6L115.2,8.3z
			 M117.5,23.8c0.4,0.2,0.9,0.3,1.6,0.4c1.9,0.4,3.7,0.2,4-1.4c0.4-1.5-1.2-2.5-3.3-3l-1.4-0.3L117.5,23.8z M119.3,16.3l1.1,0.3
			c2.4,0.6,3.7,0.1,4-1c0.2-1-0.5-1.9-2.5-2.4c-1-0.2-1.5-0.3-1.9-0.3L119.3,16.3z"/>
		<path class="st5" d="M152.3,32.3c-2.8,5.1-8.3,6.4-14.2,3.1c-5.9-3.3-7.1-8.8-4.7-13.2c2.6-4.7,8.3-6.3,14.1-3.1
			C153.6,22.5,154.6,28,152.3,32.3z M138.8,25.1c-1.7,3-1.1,5.7,1.3,7.1c2.5,1.4,5,0.2,6.6-2.7c1.5-2.8,1.2-5.7-1.3-7
			C143.1,21.1,140.5,22.1,138.8,25.1z"/>
		<path class="st5" d="M156.7,48.9l0.8-3.3c0.3-1.3,0.6-2.3,0.9-3.5l0,0c-1,0.5-2,0.9-3.2,1.4l-3.1,1.2l-4.9-4.5l10.8-2.7l1.7-10.7
			l5,4.5l-0.9,3.1c-0.3,1.2-0.6,2.1-1,3.2l0.1,0.1c1.2-0.6,1.9-0.9,3-1.4l3-1.2l4.9,4.5l-10.4,2.6l-1.6,11.2L156.7,48.9z"/>
		<path class="st5" d="M180.4,48.3l-14.3,11.4l-3.6-4.6l14.3-11.4L180.4,48.3z"/>
		<path class="st5" d="M168.4,62.2l15.9-9l3.4,6l-3.2,5.8c-1,1.9-2.5,4.2-3.9,6.1l0,0.1c1.9-1.5,4.1-2.8,6.5-4.2l3.8-2.1l2.6,4.6
			l-15.9,9l-3.1-5.4l3.4-6.2c1.1-2,2.5-4.5,3.9-6.5l-0.1-0.1c-2.1,1.3-4.4,2.8-7,4.2l-3.9,2.2L168.4,62.2z"/>
		<path class="st5" d="M185.6,99.2c-0.9-1.4-2.4-4.1-3.3-6.8c-1.3-4.1-1.4-7.1-0.5-9.5c0.9-2.5,2.8-4.2,5.3-5
			c6.1-1.9,10.9,2.4,13,9.2c0.9,2.8,1.2,5.1,1.1,6.3l-4.1,0.1c0-1.3-0.1-2.8-0.9-5.2c-1.1-3.4-3.5-5.8-7.1-4.6
			c-3.2,1.1-4.3,4.2-3.2,7.6c0.2,0.8,0.5,1.5,0.7,1.7l3-1l-0.9-2.8l3.6-1.2l2.6,8.1L185.6,99.2z"/>
	</g>
	<g>
		<path class="st5" d="M47.3,241l10,9.8l-2.8,2.9l-5.8-5.7l-2.4,2.4l5.5,5.4l-2.8,2.8l-5.5-5.4l-4.9,5l-4.2-4.1L47.3,241z"/>
		<path class="st5" d="M66.7,257.5l-10.3,15.1l-4.8-3.3l10.3-15.1L66.7,257.5z"/>
		<path class="st5" d="M74,266.1l-5.2-2.1l1.6-3.8l15.8,6.4l-1.6,3.8l-5.2-2.1l-5.4,13.1l-5.4-2.2L74,266.1z"/>
		<path class="st5" d="M89,285.9l0.9-18.3l6.9,0.3l3.2,5.8c1.1,1.9,2.3,4.4,3.1,6.6l0.1,0c-0.2-2.4-0.2-5-0.1-7.7l0.2-4.3l5.3,0.3
			l-0.9,18.3l-6.2-0.3l-3.4-6.2c-1.1-2-2.4-4.5-3.4-6.8l-0.1,0c0,2.5,0,5.2-0.2,8.2l-0.2,4.5L89,285.9z"/>
		<path class="st5" d="M129.9,274l-7.5,2.3l1,3.2l8.4-2.5l1.2,3.8l-14,4.2l-5.3-17.5l13.6-4.1l1.2,3.8l-8,2.4l0.9,2.8l7.5-2.3
			L129.9,274z"/>
		<path class="st5" d="M139.3,272.3c1.4-0.2,3.5-0.9,5.4-2.1c1.7-1.1,2.2-2.1,1.7-2.9c-0.5-0.7-1.6-0.6-4,0.1
			c-3.7,1.1-6.7,0.9-8.1-1.4c-1.7-2.7-0.3-6.6,4.3-9.5c2.2-1.4,4-2.1,5.5-2.4l1.1,4c-1,0.2-2.6,0.6-4.5,1.8c-1.5,1-2,1.9-1.6,2.6
			c0.5,0.8,1.7,0.5,4.5-0.3c4-1.1,6.4-0.5,7.8,1.6c1.7,2.7,0.7,6.5-4.7,9.9c-2.2,1.4-4.7,2.3-6,2.5L139.3,272.3z"/>
		<path class="st5" d="M158,259.1c1.3-0.5,3.3-1.7,4.8-3.2c1.4-1.4,1.7-2.5,1-3.2c-0.6-0.6-1.7-0.3-3.9,1c-3.4,1.8-6.3,2.4-8.2,0.5
			c-2.3-2.3-1.8-6.3,2.1-10.2c1.8-1.8,3.4-2.9,4.8-3.5l1.9,3.6c-0.9,0.4-2.4,1.2-4,2.8c-1.3,1.3-1.6,2.3-1,2.9
			c0.7,0.7,1.7,0.1,4.3-1.2c3.6-1.9,6.1-1.9,7.9-0.1c2.2,2.2,2.1,6.2-2.4,10.7c-1.9,1.9-4.1,3.3-5.3,3.8L158,259.1z"/>
	</g>
</g>
</svg>
