<svg xmlns="http://www.w3.org/2000/svg" viewBox="0 0 295.66 132.94">
  <defs>
    <style>
      .a {
        fill: #b71c1c;
      }

      .b {
        fill: #39f;
      }

      .c {
        fill: #fff;
      }
    </style>
  </defs>
  <title>bbf</title>
  <g>
    <path class="a" d="M86.89,134.05H2.26a78.7,78.7,0,0,1,8.83-29.85q7.38-14,27.67-33Q51.15,59.52,54.62,53.47A23.29,23.29,0,0,0,58.08,42a15.28,15.28,0,0,0-3.43-10,11.12,11.12,0,0,0-17.45.13q-3.44,4.31-4.61,15.17L4.34,44.35Q6,29.27,10.43,20.81a31,31,0,0,1,12.5-13Q31,3.32,45.27,3.31q14.88,0,23.16,4.3a30.52,30.52,0,0,1,13,13.2A41.74,41.74,0,0,1,86.2,40.75,49,49,0,0,1,80.76,63.2Q75.32,73.91,61,86.7q-8.52,7.45-11.4,10.44t-6.75,7.8H86.89Z" transform="translate(-2.26 -3.31)"/>
    <path class="b" d="M74.54,69.25Q74.54,32.61,85,18T116.72,3.31q10.25,0,16.83,3.2a31.13,31.13,0,0,1,10.73,8.33,45.15,45.15,0,0,1,6.55,10.79,66.47,66.47,0,0,1,3.84,13.2,154.64,154.64,0,0,1,2.84,30q0,35-9.35,51.21T116,136.25q-12.83,0-20.71-5.18t-13-15.17q-3.67-7.09-5.71-19.42A166.1,166.1,0,0,1,74.54,69.25Zm28,.09q0,24.55,3.43,33.54t9.94,9a9.41,9.41,0,0,0,7.44-3.81Q126.48,104.24,128,96t1.49-25.69q0-25.61-3.43-34.42t-10.28-8.82q-7,0-10.11,9T102.52,69.34Z" transform="translate(-2.26 -3.31)"/>
    <path class="a" d="M227.3,134.05H142.67a78.7,78.7,0,0,1,8.83-29.85q7.38-14,27.67-33Q191.56,59.52,195,53.47A23.29,23.29,0,0,0,198.49,42a15.28,15.28,0,0,0-3.43-10,11.12,11.12,0,0,0-17.45.13q-3.44,4.31-4.61,15.17l-28.25-2.89q1.67-15.08,6.09-23.54a31,31,0,0,1,12.5-13q8.07-4.51,22.34-4.52,14.88,0,23.16,4.3a30.52,30.52,0,0,1,13,13.2,41.63,41.63,0,0,1,4.75,19.94,48.83,48.83,0,0,1-5.44,22.45q-5.43,10.71-19.77,23.5Q192.88,94.16,190,97.14t-6.76,7.8H227.3Z" transform="translate(-2.26 -3.31)"/>
    <path class="b" d="M215,69.25Q215,32.61,225.38,18T257.13,3.31q10.25,0,16.83,3.2a31,31,0,0,1,10.73,8.33,44.83,44.83,0,0,1,6.55,10.79,66.47,66.47,0,0,1,3.84,13.2,154.64,154.64,0,0,1,2.84,30q0,35-9.35,51.21t-32.2,16.23q-12.81,0-20.71-5.18T222.71,115.9Q219,108.81,217,96.48A167.27,167.27,0,0,1,215,69.25Zm28,.09q0,24.55,3.43,33.54t9.94,9a9.44,9.44,0,0,0,7.45-3.81q3.13-3.82,4.64-12.06t1.48-25.69q0-25.61-3.42-34.42t-10.29-8.82q-7,0-10.11,9T242.93,69.34Z" transform="translate(-2.26 -3.31)"/>
  </g>
  <g>
    <path class="c" d="M62.51,58.08,72.21,61a18.09,18.09,0,0,1-3.08,6.82,13.41,13.41,0,0,1-5.21,4.12A19.5,19.5,0,0,1,56,73.33a23,23,0,0,1-9.53-1.69,15.12,15.12,0,0,1-6.38-6,20.21,20.21,0,0,1-2.69-10.93q0-8.88,4.73-13.65t13.36-4.77q6.77,0,10.63,2.74a16,16,0,0,1,5.75,8.39L62.1,49.63A8.08,8.08,0,0,0,61,47.24a6.28,6.28,0,0,0-2.27-2A7,7,0,0,0,50,47.62q-1.52,2.25-1.51,7.05,0,6,1.8,8.16A6.21,6.21,0,0,0,55.36,65a6.17,6.17,0,0,0,4.8-1.78A11,11,0,0,0,62.51,58.08Z" transform="translate(-2.26 -3.31)"/>
    <path class="c" d="M76.19,54.85q0-8.76,4.88-13.65t13.6-4.88q8.92,0,13.77,4.8t4.83,13.44a22,22,0,0,1-2.11,10.29,15,15,0,0,1-6.11,6.25,20.11,20.11,0,0,1-9.94,2.23,23,23,0,0,1-10-1.92,15.15,15.15,0,0,1-6.43-6.11A20.28,20.28,0,0,1,76.19,54.85Zm11,0c0,3.61.68,6.21,2,7.79a7.62,7.62,0,0,0,11,.05c1.3-1.55,1.95-4.32,1.95-8.33q0-5.05-2-7.38a7,7,0,0,0-5.53-2.33,6.74,6.74,0,0,0-5.37,2.36C87.92,48.64,87.24,51.26,87.24,54.9Z" transform="translate(-2.26 -3.31)"/>
    <path class="c" d="M119.11,36.93h14.54l5.61,21.78,5.57-21.78h14.53V72.72h-9.05V45.43l-7,27.29h-8.2l-7-27.29V72.72h-9Z" transform="translate(-2.26 -3.31)"/>
    <path class="c" d="M166.3,36.93h14.54l5.61,21.78L192,36.93h14.54V72.72H197.5V45.43l-7,27.29h-8.2l-7-27.29V72.72H166.3Z" transform="translate(-2.26 -3.31)"/>
    <path class="c" d="M214.05,36.93h11.09V72.72H214.05Z" transform="translate(-2.26 -3.31)"/>
    <path class="c" d="M230.56,36.93h33.61v8.84H252.89V72.72H241.83V45.77H230.56Z" transform="translate(-2.26 -3.31)"/>
    <path class="c" d="M45.91,110.72V84.21H36V80.66H59.84v3.55h-10v26.51Z" transform="translate(-2.26 -3.31)"/>
    <path class="c" d="M62,96.08q0-7.48,4-11.72a13.68,13.68,0,0,1,10.38-4.23,14.36,14.36,0,0,1,7.5,2A13,13,0,0,1,89,87.66a18,18,0,0,1,1.75,8.07,17.69,17.69,0,0,1-1.84,8.18,12.64,12.64,0,0,1-5.23,5.47,14.93,14.93,0,0,1-7.3,1.86,14.29,14.29,0,0,1-7.59-2,13.26,13.26,0,0,1-5.07-5.6A17,17,0,0,1,62,96.08Zm4.1.06c0,3.63,1,6.48,2.92,8.56a10.2,10.2,0,0,0,14.73,0q2.89-3.15,2.9-9a15.37,15.37,0,0,0-1.24-6.41,9.56,9.56,0,0,0-3.63-4.24,9.79,9.79,0,0,0-5.36-1.51,10.18,10.18,0,0,0-7.27,2.9Q66.05,89.36,66.05,96.14Z" transform="translate(-2.26 -3.31)"/>
    <path class="c" d="M121.57,98.93V95.4l12.73,0v11.16a22.46,22.46,0,0,1-6.05,3.52,18.09,18.09,0,0,1-6.4,1.18,17.16,17.16,0,0,1-8-1.9,12.49,12.49,0,0,1-5.46-5.49,17.26,17.26,0,0,1-1.85-8,18.54,18.54,0,0,1,1.84-8.19A12.2,12.2,0,0,1,113.61,82a16.56,16.56,0,0,1,7.94-1.84,15.8,15.8,0,0,1,5.89,1,9.74,9.74,0,0,1,4.13,3,12.92,12.92,0,0,1,2.28,4.92l-3.59,1a11.15,11.15,0,0,0-1.68-3.61,7,7,0,0,0-2.87-2.1,10.5,10.5,0,0,0-4.14-.79,12.29,12.29,0,0,0-4.72.83,8.62,8.62,0,0,0-3.21,2.19,10.43,10.43,0,0,0-1.9,3,15.82,15.82,0,0,0-1.15,6,14.74,14.74,0,0,0,1.39,6.73,8.79,8.79,0,0,0,4,4,12.42,12.42,0,0,0,5.62,1.32,13.21,13.21,0,0,0,5-1,12.88,12.88,0,0,0,3.73-2.12v-5.6Z" transform="translate(-2.26 -3.31)"/>
    <path class="c" d="M140.25,110.72V80.66H162v3.55H144.23v9.2h16.63v3.53H144.23v10.24h18.45v3.54Z" transform="translate(-2.26 -3.31)"/>
    <path class="c" d="M175.83,110.72V84.21h-9.91V80.66h23.83v3.55h-9.94v26.51Z" transform="translate(-2.26 -3.31)"/>
    <path class="c" d="M205,110.72V80.66h20.28v3.55h-16.3v9.31H223v3.55H208.93v13.65Z" transform="translate(-2.26 -3.31)"/>
    <path class="c" d="M231.08,110.72V80.66h4v30.06Z" transform="translate(-2.26 -3.31)"/>
    <path class="c" d="M249.72,110.72V84.21h-9.91V80.66h23.83v3.55H253.7v26.51Z" transform="translate(-2.26 -3.31)"/>
  </g>
</svg>
